<?xml version="1.0" ?><svg id="Icons" style="enable-background:new 0 0 32 32;" version="1.1" viewBox="0 0 32 32" xml:space="preserve" xmlns="http://www.w3.org/2000/svg" xmlns:xlink="http://www.w3.org/1999/xlink"><style type="text/css">
	.st0{fill:none;stroke:#000000;stroke-width:2;stroke-linecap:round;stroke-linejoin:round;stroke-miterlimit:10;}
	.st1{fill:none;stroke:#000000;stroke-width:2;stroke-linecap:round;stroke-linejoin:round;}
	.st2{fill:none;stroke:#000000;stroke-width:2;stroke-linecap:round;stroke-linejoin:round;stroke-dasharray:6,6;}
	.st3{fill:none;stroke:#000000;stroke-width:2;stroke-linecap:round;stroke-linejoin:round;stroke-dasharray:4,4;}
	.st4{fill:none;stroke:#000000;stroke-width:2;stroke-linecap:round;}
	.st5{fill:none;stroke:#000000;stroke-width:2;stroke-linecap:round;stroke-dasharray:3.1081,3.1081;}
	
		.st6{fill:none;stroke:#000000;stroke-width:2;stroke-linecap:round;stroke-linejoin:round;stroke-miterlimit:10;stroke-dasharray:4,3;}
</style><polyline class="st0" points="3,7 3,3 7,3 "/><polyline class="st0" points="25,3 29,3 29,7 "/><polyline class="st0" points="29,25 29,29 25,29 "/><polyline class="st0" points="7,29 3,29 3,25 "/><path class="st0" d="M25,25.5c-0.4-2-1.9-3.7-3.9-4.2c-1.6-0.4-2.8-1.9-2.8-3.6c1.4-0.8,2.3-2.3,2.3-4v0c0-0.8,0.7-1.5,1.5-1.5h0  l0-1.8c0-2.2-1.6-4.1-3.7-4.4c-1.5-0.2-2.9,0.5-3.7,1.6c-0.6-0.1-1.2-0.1-2,0.5c-0.8,0.6-1.2,1.5-1.2,2.5l0,0.8v1.2v1  c0,1.7,0.9,3.3,2.3,4.1v0c0,1.8-1.2,3.2-2.9,3.7c-1.9,0.5-3.4,2.1-3.8,4.1"/></svg>